<?xml version="1.0" encoding="utf-8"?>
<!-- Generator: Adobe Illustrator 19.0.0, SVG Export Plug-In . SVG Version: 6.00 Build 0)  -->
<svg version="1.1" id="Layer_1" xmlns="http://www.w3.org/2000/svg" xmlns:xlink="http://www.w3.org/1999/xlink" x="0px" y="0px"
	 viewBox="0 0 26.8 15.4" style="enable-background:new 0 0 26.8 15.4;" xml:space="preserve">
<style type="text/css">
	.st0{fill:#0F0E0E;}
	.st1{fill:none;stroke:#0F0E0E;stroke-miterlimit:10;}
</style>
<g>
	<g>
		<path class="st0" d="M25.9,10.6h-25V4.3c0-1.9,1.6-3.5,3.5-3.5h18c1.9,0,3.5,1.6,3.5,3.5V10.6z M1.9,9.6h23V4.3
			c0-1.4-1.1-2.5-2.5-2.5h-18C3,1.8,1.9,2.9,1.9,4.3V9.6z"/>
	</g>
</g>
<g>
	<g>
		<path class="st1" d="M30.1,16.6"/>
	</g>
</g>
<g>
	<g>
		<path class="st1" d="M7.3,13.6"/>
	</g>
</g>
<g>
	<g>
		<path class="st1" d="M2.6,11.6"/>
	</g>
</g>
<g>
	<g>
		<path class="st0" d="M5.6,13.8c-0.9,0-2.6-0.1-3.7-1.1c-0.6-0.6-0.9-1.3-0.9-2.3h1c0,0.6,0.2,1.1,0.6,1.5C3.7,13,6,12.8,6,12.8
			l0.1,1C6.1,13.8,5.9,13.8,5.6,13.8z"/>
	</g>
</g>
<g>
	<g>
		<path class="st0" d="M21.2,13.8c-0.3,0-0.5,0-0.5,0l0.1-1c0,0,2.3,0.2,3.5-0.9c0.4-0.4,0.6-0.9,0.6-1.5h1c0,0.9-0.3,1.7-0.9,2.3
			C23.9,13.7,22.1,13.8,21.2,13.8z"/>
	</g>
</g>
<g>
	<path class="st1" d="M31.8,14.9"/>
</g>
</svg>
